PathFileType	4	(X/Y/Z)	C:\Users\86182\Documents\cortex\Trimmed_M1_L16.trc
DataRate	CameraRate	NumFrames	NumMarkers	Units	OrigDataRate	OrigDataStartFrame	OrigNumFrames
100.00	100.00	       70	2	mm	100.00	571	       951
Frame#	Time	gripper			box			
		X1	Y1	Z1	X2	Y2	Z2	

571	5.700	204.64081	209.07813	293.71146	229.78337	205.75729	144.83191	
572	5.710	204.64142	209.07875	293.71198	229.80035	205.76683	144.81116	
573	5.720	204.64175	209.07910	293.71222	229.80035	205.76683	144.81116	
574	5.730	204.64188	209.07921	293.71234	229.83060	205.78383	144.77409	
575	5.740	204.64183	209.07916	293.71228	229.83723	205.78755	144.76593	
576	5.750	204.64168	209.07901	293.71216	229.83388	205.78568	144.77002	
577	5.760	204.64148	209.07880	293.71198	229.83723	205.78755	144.76593	
578	5.770	204.64128	209.07860	293.71182	229.79692	205.76491	144.81531	
579	5.780	204.64114	209.07848	293.71173	229.83388	205.78568	144.77002	
580	5.790	204.64111	209.07845	293.71167	229.78003	205.75540	144.83604	
581	5.800	204.64113	209.07846	293.71170	229.79692	205.76491	144.81531	
582	5.810	204.64111	209.07845	293.71167	229.81384	205.77440	144.79463	
583	5.820	204.64104	209.07837	293.71161	229.76976	205.74965	144.84860	
584	5.830	204.64087	209.07819	293.71149	229.78003	205.75540	144.83604	
585	5.840	204.64064	209.07796	293.71130	229.82726	205.78194	144.77818	
586	5.850	204.64041	209.07771	293.71112	229.81384	205.77440	144.79463	
587	5.860	204.64029	209.07761	293.71100	229.84059	205.78944	144.76184	
588	5.870	204.64035	209.07767	293.71106	229.77661	205.75348	144.84024	
589	5.880	204.64058	209.07790	293.71124	229.82054	205.77817	144.78641	
590	5.890	204.64088	209.07822	293.71149	229.84723	205.79317	144.75371	
591	5.900	204.64119	209.07852	293.71173	229.82054	205.77817	144.78641	
592	5.910	204.64143	209.07877	293.71194	229.81384	205.77440	144.79463	
593	5.920	204.64160	209.07895	293.71210	229.83060	205.78383	144.77409	
594	5.930	204.64172	209.07907	293.71219	229.79692	205.76491	144.81531	
595	5.940	204.64178	209.07913	293.71225	229.80705	205.77060	144.80289	
596	5.950	204.64182	209.07916	293.71228	229.81384	205.77440	144.79463	
597	5.960	204.64182	209.07916	293.71228	229.79692	205.76491	144.81531	
598	5.970	204.64182	209.07915	293.71228	229.82390	205.78006	144.78229	
599	5.980	204.64182	209.07915	293.71228	229.80035	205.76683	144.81116	
600	5.990	204.64180	209.07913	293.71225	229.82390	205.78006	144.78229	
601	6.000	204.64178	209.07912	293.71225	229.83388	205.78568	144.77002	
602	6.010	204.64177	209.07910	293.71225	229.80035	205.76683	144.81116	
603	6.020	204.64175	209.07909	293.71222	229.81384	205.77440	144.79463	
604	6.030	204.64172	209.07907	293.71219	229.80371	205.76871	144.80702	
605	6.040	204.64169	209.07903	293.71216	229.80371	205.76871	144.80702	
606	6.050	204.64163	209.07898	293.71213	229.83723	205.78755	144.76593	
607	6.060	204.64157	209.07892	293.71207	229.81384	205.77440	144.79463	
608	6.070	204.64149	209.07884	293.71201	229.81718	205.77629	144.79051	
609	6.080	204.64145	209.07878	293.71198	229.80705	205.77060	144.80289	
610	6.090	204.64142	209.07875	293.71194	229.82390	205.78006	144.78229	
611	6.100	204.64148	209.07880	293.71201	229.84059	205.78944	144.76184	
612	6.110	204.64163	209.07895	293.71216	229.80035	205.76683	144.81116	
613	6.120	204.64188	209.07918	293.71240	229.81718	205.77629	144.79051	
614	6.130	204.64217	209.07944	293.71265	229.80371	205.76871	144.80702	
615	6.140	204.64244	209.07970	293.71292	229.81718	205.77629	144.79051	
616	6.150	204.64264	209.07988	293.71313	229.81041	205.77248	144.79878	
617	6.160	204.64267	209.07990	293.71313	229.80705	205.77060	144.80289	
618	6.170	204.64247	209.07970	293.71298	229.80371	205.76871	144.80702	
619	6.180	204.64211	209.07935	293.71265	229.81384	205.77440	144.79463	
620	6.190	204.64165	209.07892	293.71225	229.81384	205.77440	144.79463	
621	6.200	204.64124	209.07851	293.71185	229.84387	205.79129	144.75778	
622	6.210	204.64091	209.07822	293.71158	229.82390	205.78006	144.78229	
623	6.220	204.64078	209.07809	293.71143	229.82726	205.78194	144.77818	
624	6.230	204.64081	209.07813	293.71146	229.80705	205.77060	144.80289	
625	6.240	204.64096	209.07829	293.71155	229.81718	205.77629	144.79051	
626	6.250	204.64116	209.07849	293.71173	229.82726	205.78194	144.77818	
627	6.260	204.64136	209.07869	293.71188	229.82726	205.78194	144.77818	
628	6.270	204.64151	209.07884	293.71201	229.78680	205.75922	144.82774	
629	6.280	204.64162	209.07896	293.71210	229.81041	205.77248	144.79878	
630	6.290	204.64168	209.07903	293.71213	229.80035	205.76683	144.81116	
631	6.300	204.64171	209.07906	293.71216	229.78003	205.75540	144.83604	
632	6.310	204.64172	209.07907	293.71216	229.79358	205.76302	144.81944	
633	6.320	204.64174	209.07909	293.71219	229.81384	205.77440	144.79463	
634	6.330	204.64177	209.07912	293.71222	229.79692	205.76491	144.81531	
635	6.340	204.64185	209.07918	293.71228	229.81384	205.77440	144.79463	
636	6.350	204.64198	209.07930	293.71243	229.84387	205.79129	144.75778	
637	6.360	204.64218	209.07948	293.71262	229.81041	205.77248	144.79878	
638	6.370	204.64244	209.07971	293.71289	229.80035	205.76683	144.81116	
639	6.380	204.64275	209.07999	293.71317	229.81718	205.77629	144.79051	
640	6.390	204.64301	209.08022	293.71344	229.84059	205.78944	144.76184	
